HIERARCHY
ROOT Hips
{
  OFFSET 267.745 86.9975 -272.335
  CHANNELS 6 Xposition Yposition Zposition Zrotation Xrotation Yrotation
  JOINT LeftUpLeg
  {
    OFFSET 8.64259 1.95398 -2.38835
    CHANNELS 3 Zrotation Xrotation Yrotation
    JOINT LeftLeg
    {
      OFFSET 43.7702 0 0
      CHANNELS 3 Zrotation Xrotation Yrotation
      JOINT LeftFoot
      {
        OFFSET 40.6238 0 0
        CHANNELS 3 Zrotation Xrotation Yrotation
        JOINT LeftToeBase
        {
          OFFSET 12.7242 0 0
          CHANNELS 3 Zrotation Xrotation Yrotation
          End Site
          {
            OFFSET 0 0 0
          }
        }
      }
    }
  }
  JOINT RightUpLeg
  {
    OFFSET -8.2249 1.95398 -2.59336
    CHANNELS 3 Zrotation Xrotation Yrotation
    JOINT RightLeg
    {
      OFFSET 43.5653 0 0
      CHANNELS 3 Zrotation Xrotation Yrotation
      JOINT RightFoot
      {
        OFFSET 40.6238 0 0
        CHANNELS 3 Zrotation Xrotation Yrotation
        JOINT RightToeBase
        {
          OFFSET 12.7242 0 0
          CHANNELS 3 Zrotation Xrotation Yrotation
          End Site
          {
            OFFSET 0 0 0
          }
        }
      }
    }
  }
  JOINT Spine
  {
    OFFSET 0.165834 0.87714 6.61349
    CHANNELS 3 Zrotation Xrotation Yrotation
    JOINT Spine1
    {
      OFFSET 7.38963 1.71661e-005 0
      CHANNELS 3 Zrotation Xrotation Yrotation
      JOINT Spine2
      {
        OFFSET 11.9445 1.14441e-005 0
        CHANNELS 3 Zrotation Xrotation Yrotation
        JOINT Spine3
        {
          OFFSET 14.7254 4.19617e-005 0
          CHANNELS 3 Zrotation Xrotation Yrotation
          JOINT Spine4
          {
            OFFSET 10.9679 0 0
            CHANNELS 3 Zrotation Xrotation Yrotation
            JOINT RightShoulder
            {
              OFFSET 2.46616 -1.6653 3.69651
              CHANNELS 3 Zrotation Xrotation Yrotation
              JOINT RightArm
              {
                OFFSET 13.0012 0 0
                CHANNELS 3 Zrotation Xrotation Yrotation
                JOINT RightForeArm
                {
                  OFFSET 28.7848 1.52588e-005 0
                  CHANNELS 3 Zrotation Xrotation Yrotation
                  JOINT RightHand
                  {
                    OFFSET 26.5688 1.52588e-005 0
                    CHANNELS 3 Zrotation Xrotation Yrotation
                    End Site
                    {
                      OFFSET 0 0 0
                    }
                  }
                }
              }
            }
            JOINT LeftShoulder
            {
              OFFSET 2.38034 -1.29275 -3.7523
              CHANNELS 3 Zrotation Xrotation Yrotation
              JOINT LeftArm
              {
                OFFSET 16.3182 6.10352e-005 0
                CHANNELS 3 Zrotation Xrotation Yrotation
                JOINT LeftForeArm
                {
                  OFFSET 27.0901 0 0
                  CHANNELS 3 Zrotation Xrotation Yrotation
                  JOINT LeftHand
                  {
                    OFFSET 24.5451 1.52588e-005 0
                    CHANNELS 3 Zrotation Xrotation Yrotation
                    End Site
                    {
                      OFFSET 0 0 0
                    }
                  }
                }
              }
            }
            JOINT Neck
            {
              OFFSET 5.0226 -0.0266342 0
              CHANNELS 3 Zrotation Xrotation Yrotation
              JOINT Head
              {
                OFFSET 6.69364 2.86102e-005 0
                CHANNELS 3 Zrotation Xrotation Yrotation
                End Site
                {
                  OFFSET 0 0 0
                }
              }
            }
          }
        }
      }
    }
  }
}
MOTION
Frames:	9
Frame Time:	0.0416667
-1.75049 97.6725 49.4364 146.668 -82.9657 149.571 -172.036 -3.66869 93.396 -10.4902 19.2987 2.06145 56.8569 2.58829 19.3733 42.5782 -1.54289 -0.193013 175.605 2.08268 88.7895 -17.2002 -1.76023 -0.601391 58.8376 7.54477 18.0056 28.457 -0.082607 1.75552 -0.19853 7.23807 -90.4064 12.4163 -0.587491 -0.743249 0.745336 -0.619636 -0.716679 -21.7885 -0.336964 -0.885438 -1.7759 -0.336966 -0.885442 101.626 -54.6889 -82.9662 30.3382 3.88913 -5.91035 -1.30161 -15.6476 -14.0285 -13.8746 -0.823183 1.75002 -79.7019 -51.1951 94.0854 -32.3118 -0.902734 -17.5036 -2.27156 42.0521 -0.00512203 -0.0335443 -0.125699 -6.09289 0.0802048 -0.829169 -6.82115 -16.429 -0.370252 4.66549 
-1.7367 97.6554 49.4569 146.888 -82.9818 149.756 -172 -3.70674 93.3828 -10.4332 19.1819 2.01015 56.9328 2.63492 19.3608 42.7455 -1.56579 -0.82007 175.509 2.07112 88.6658 -17.1828 -1.77182 -0.54707 58.733 7.69243 18.4061 28.4325 -0.106739 2.04705 -0.188151 7.23806 -90.4067 12.4074 -0.56705 -0.746759 0.736377 -0.599368 -0.721087 -21.7974 -0.316414 -0.882645 -1.7848 -0.316413 -0.882652 101.671 -54.5809 -82.901 30.508 4.18934 -5.96841 -1.59537 -16.2721 -13.9661 -12.7417 -0.773183 1.92316 -79.7466 -51.227 94.0196 -32.4595 -1.21162 -17.7894 -1.96258 44.1634 -0.00530182 -0.693637 -0.12666 -6.80663 -0.00095384 -0.922897 -6.88624 -16.3389 -0.460754 4.71093 
-1.77443 97.6371 49.418 146.21 -82.9704 149.103 -172.01 -3.59077 93.3986 -10.4748 18.749 2.0369 57.0314 2.72134 19.2436 42.7648 -1.57143 -1.38689 175.542 2.07929 88.7723 -17.1291 -1.91872 -0.518502 58.9466 7.3422 17.5206 27.9142 -0.221273 4.49529 -0.203693 7.23176 -90.4044 12.4053 -0.596891 -0.739563 0.734277 -0.628867 -0.712576 -21.7997 -0.347043 -0.884751 -1.78701 -0.347041 -0.884754 101.598 -54.5579 -83.0077 30.5947 4.33654 -5.95301 -1.88485 -17.1265 -13.9783 -12.6772 -0.752478 1.76437 -79.6925 -51.0918 94.096 -32.617 -1.10145 -18.4355 -2.02469 42.2873 -0.00514112 0.962182 -0.159214 -6.72086 0.181985 -0.928881 -7.5809 -16.7019 -0.468476 5.58294 
-1.76504 97.6397 49.4175 145.295 -83.0539 148.183 -172.191 -3.58164 93.2451 -10.2287 17.792 2.17045 57.21 2.88006 18.7821 42.6925 -1.56505 -1.77294 175.589 2.22369 88.7899 -17.1864 -1.88834 -0.551181 58.9204 7.44802 17.6221 28.108 -0.178007 3.6037 -0.209875 7.21649 -90.4019 12.4388 -0.608121 -0.733016 0.767839 -0.639787 -0.705554 -21.7661 -0.359719 -0.881889 -1.75349 -0.359709 -0.881882 101.58 -54.5594 -83.035 30.5929 4.41901 -5.86797 -1.94446 -17.09 -14.0348 -12.4142 -0.708937 1.49995 -79.7344 -51.1386 94.035 -32.4999 -1.02106 -18.3579 -2.04563 42.8106 -0.0051844 0.943335 -0.163476 -6.87842 -0.0899768 -0.919248 -7.44204 -16.3058 -0.451495 5.34598 
-1.75788 97.628 49.4362 146.399 -83.1293 149.267 -171.826 -3.73585 93.3799 -9.7767 17.2385 1.86163 57.3567 2.98912 18.64 42.3166 -1.51975 -2.93381 175.527 2.23286 88.6922 -17.1739 -1.84371 -0.52576 58.861 7.60572 18.2344 27.5598 -0.0722228 3.72867 -0.189437 7.21063 -90.3984 12.4355 -0.565898 -0.731614 0.764446 -0.597544 -0.705998 -21.7695 -0.319867 -0.867847 -1.75681 -0.319864 -0.867847 101.622 -54.5592 -82.9729 30.517 4.19619 -5.87452 -1.73896 -16.7595 -13.9247 -12.8053 -0.722211 1.41131 -79.8112 -51.104 93.9185 -32.4828 -1.11918 -18.3895 -2.0115 42.8324 -0.00518623 0.042336 -0.145839 -6.99407 -0.145288 -0.904798 -7.51838 -16.2074 -0.431504 5.40231 
-1.77413 97.6338 49.4144 146.001 -83.0821 148.879 -171.727 -3.85664 93.3889 -9.43699 16.2399 1.81765 57.8049 3.36094 18.1258 41.6993 -1.4322 -3.81801 175.573 2.23161 88.7678 -17.2217 -1.93739 -0.544227 59.1024 7.34359 17.5764 27.6683 -0.12992 4.07575 -0.203697 7.20852 -90.3966 12.4287 -0.593434 -0.725446 0.757672 -0.62479 -0.698633 -21.7763 -0.347987 -0.870527 -1.76367 -0.347985 -0.870535 101.552 -54.6091 -83.0755 30.4141 4.10144 -5.89493 -1.65287 -16.7198 -13.8547 -13.0249 -0.736045 1.42279 -79.7387 -51.1261 94.028 -32.3548 -0.930962 -18.3885 -2.09453 43.1295 -0.00521135 0.940946 -0.170934 -7.14598 0.0510197 -0.852901 -7.48781 -16.6012 -0.388728 5.39074 
-1.74737 97.611 49.3931 145.452 -83.0371 148.256 -171.932 -3.98484 93.1584 -9.11916 14.6364 1.96496 58.153 3.59241 17.3357 41.2114 -1.35146 -5.17363 175.495 2.30722 88.6296 -17.3351 -1.72025 -0.525709 58.9627 7.58184 18.0993 27.5711 -0.087488 3.85541 -0.212518 7.20925 -90.3887 12.4231 -0.607223 -0.708502 0.75211 -0.637814 -0.6811 -21.782 -0.366229 -0.85824 -1.76935 -0.366223 -0.858241 101.531 -54.5162 -83.108 30.4716 4.03767 -5.78077 -1.68078 -16.715 -14.0191 -13.0908 -0.764865 1.64963 -79.7743 -51.1071 93.9736 -32.3697 -0.786848 -18.4114 -2.15103 41.6124 -0.00508697 1.42412 -0.189137 -7.34622 -0.075461 -0.870927 -7.63564 -16.312 -0.404018 5.6078 
-1.77416 97.621 49.3706 144.764 -82.9952 147.58 -171.812 -4.11742 93.1718 -8.65728 13.3196 1.91474 58.5398 3.92 16.7047 40.5378 -1.22851 -6.39255 175.492 2.41705 88.6897 -17.5748 -1.78564 -0.487463 59.3277 7.28648 17.4669 27.3782 -0.0990434 4.37659 -0.226378 7.21138 -90.3856 12.43 -0.633198 -0.698662 0.759087 -0.663332 -0.670127 -21.7751 -0.393956 -0.856645 -1.76249 -0.393959 -0.856647 101.509 -54.6102 -83.1393 30.2721 3.85802 -5.80125 -1.59105 -16.6493 -13.9175 -12.9887 -0.767197 1.72809 -79.7441 -51.0528 94.0172 -32.3118 -0.609461 -18.3525 -2.23978 41.5929 -0.00508543 2.15479 -0.196028 -7.04589 -0.194413 -0.87881 -7.6673 -16.264 -0.407741 5.55877 
-1.75435 97.5929 49.3873 145.148 -83.15 147.968 -171.755 -4.22342 93.1252 -8.13438 11.5791 1.88335 58.9148 4.16809 15.8709 40.3302 -1.16639 -8.16675 175.575 2.54991 88.6785 -17.5838 -1.70752 -0.578682 59.0245 7.62729 18.0918 27.6948 -0.11202 3.8381 -0.201193 7.21354 -90.3972 12.4447 -0.58856 -0.725662 0.773719 -0.619924 -0.699058 -21.7602 -0.34327 -0.868985 -1.7476 -0.343267 -0.868988 101.561 -54.4056 -83.0645 30.4162 3.99091 -5.80592 -1.68687 -16.8905 -13.955 -13.0131 -0.768342 1.72518 -79.8361 -51.1581 93.8826 -32.3386 -0.885186 -18.4935 -2.07075 42.6656 -0.00517229 1.6721 -0.172053 -6.67857 -0.0546825 -0.852376 -7.63378 -16.391 -0.399287 5.70849 
